<?xml version="1.0" encoding="utf-8"?>
<!-- Generator: Adobe Illustrator 19.1.0, SVG Export Plug-In . SVG Version: 6.00 Build 0)  -->
<svg version="1.1" id="Ebene_1" xmlns="http://www.w3.org/2000/svg" xmlns:xlink="http://www.w3.org/1999/xlink" x="0px" y="0px"
	 width="500px" height="500px" viewBox="0 0 500 500" enable-background="new 0 0 500 500" xml:space="preserve">
<path fill="#003366" d="M360.1,321.5c-4.5,5.5-11,8.4-17.7,8.4c-0.9,0-1.9-0.1-2.8-0.2c-0.1,5-1.9,9.7-5,13.6
	c-3.8,4.7-9.2,7.6-15.2,8.3c-0.8,0.1-1.6,0.1-2.5,0.1c-1.9,0-3.7-0.2-5.5-0.7c-0.5,4.1-2.1,8-4.8,11.4c-3.8,4.7-9.2,7.6-15.2,8.3
	c-0.8,0.1-1.6,0.1-2.5,0.1c-5.2,0-10.1-1.7-14.2-5l-0.8-0.7c-0.7,2.5-1.9,4.8-3.6,6.9c-3.9,4.8-9.6,7.3-15.4,7.3
	c-4.2,0-8.5-1.3-12.1-4.1l-0.6-0.3l-1.9,2.4c-4.9,6.2-14,7.4-20.2,2.5c-5.3-4.2-6.9-11.4-4.2-17.3l-1,1.2
	c-5.2,6.7-14.9,7.9-21.6,2.7c-5.3-4.2-7.2-11.2-5-17.3c-5.4,5.4-14.2,6.1-20.4,1.3l-0.5-0.4c-6.1-4.8-7.6-13.3-3.9-19.8
	c-5.9,4.8-14.6,5.2-20.9,0.3c-7.3-5.7-8.6-16.2-2.9-23.5l7.9-10.2l-20.9-27.3c-1.5-1.9-1.7-4.4-0.7-6.6l3.9-8.3l21,25.5l5.2,6.8
	c5.9-4.2,14.1-4.3,20.1,0.4c7.3,5.7,8.6,16.2,2.9,23.5l-0.9,1.1c5.4-4,13.1-4.1,18.6,0.2l0.5,0.4c5.8,4.5,7.4,12.3,4.5,18.7
	c5.4-4.1,13.2-4.3,18.8,0.1c5.5,4.3,7.3,11.8,4.8,18l1.6,0.9c4.7-2.2,10.5-1.7,14.9,1.7l0,0c3.6,2.8,5.5,7,5.5,11.3l2.4,1.5
	c0.2,0.1,0.4,0.3,0.6,0.4c3,2.4,7.4,2,9.9-1.1c2.4-3,2-7.4-1.1-9.9c0,0-0.1-0.1-0.1-0.1l-25.6-21.5c-0.1-0.1-0.1-0.1-0.2-0.2
	c-0.1-0.1-0.2-0.1-0.2-0.2c-0.1-0.1-0.1-0.2-0.2-0.2s-0.1-0.2-0.2-0.2c-0.1-0.1-0.1-0.2-0.2-0.2c-0.1-0.1-0.1-0.2-0.2-0.3
	s-0.1-0.2-0.2-0.3s-0.1-0.2-0.2-0.3c0-0.1-0.1-0.2-0.1-0.3c0-0.1-0.1-0.2-0.1-0.3c0-0.1-0.1-0.2-0.1-0.3c0-0.1-0.1-0.2-0.1-0.3
	c0-0.1-0.1-0.2-0.1-0.3c0-0.1,0-0.2-0.1-0.3c0-0.1,0-0.2,0-0.3c0-0.1,0-0.2,0-0.3c0-0.1,0-0.2,0-0.3c0-0.1,0-0.2,0-0.3s0-0.2,0-0.3
	c0-0.1,0-0.2,0-0.3s0-0.2,0-0.3c0-0.1,0-0.2,0-0.3c0-0.1,0-0.2,0.1-0.3c0-0.1,0-0.2,0.1-0.3c0-0.1,0.1-0.2,0.1-0.3
	c0-0.1,0.1-0.2,0.1-0.3c0-0.1,0.1-0.2,0.1-0.3c0-0.1,0.1-0.2,0.1-0.3c0.1-0.1,0.1-0.2,0.2-0.3c0-0.1,0.1-0.2,0.2-0.3
	c0.1-0.1,0.1-0.2,0.2-0.3c0-0.1,0.1-0.1,0.1-0.2c0,0,0,0,0,0c0,0,0,0,0-0.1c0.1-0.1,0.1-0.1,0.2-0.2c0.1-0.1,0.1-0.2,0.2-0.2
	c0.1-0.1,0.2-0.2,0.3-0.2c0.1-0.1,0.1-0.1,0.2-0.2c0.1-0.1,0.2-0.1,0.3-0.2c0.1-0.1,0.2-0.1,0.2-0.2c0.1-0.1,0.2-0.1,0.3-0.2
	c0.1,0,0.2-0.1,0.3-0.1c0.1-0.1,0.2-0.1,0.3-0.1c0.1,0,0.2-0.1,0.3-0.1c0.1,0,0.2-0.1,0.3-0.1c0.1,0,0.2-0.1,0.3-0.1
	c0.1,0,0.2-0.1,0.3-0.1c0.1,0,0.2,0,0.3-0.1c0.1,0,0.2,0,0.3,0c0.1,0,0.2,0,0.3,0c0.1,0,0.2,0,0.3,0c0.1,0,0.2,0,0.3,0
	c0.1,0,0.2,0,0.3,0c0.1,0,0.2,0,0.3,0c0.1,0,0.2,0,0.3,0c0.1,0,0.2,0,0.3,0c0.1,0,0.2,0,0.3,0.1c0.1,0,0.2,0,0.3,0.1
	c0.1,0,0.2,0.1,0.3,0.1c0.1,0,0.2,0.1,0.3,0.1c0.1,0,0.2,0.1,0.3,0.1c0.1,0,0.2,0.1,0.3,0.1c0.1,0,0.2,0.1,0.3,0.2
	c0.1,0.1,0.2,0.1,0.3,0.2c0.1,0.1,0.2,0.1,0.3,0.2c0.1,0,0.1,0.1,0.2,0.1l41,33.1c2.1,1.7,4.6,2.4,7.3,2.1c2.7-0.3,5-1.6,6.7-3.6
	c3.2-3.9,2.8-9.5-0.5-13.1l-34.4-27.8c-0.3-0.2-0.5-0.5-0.8-0.7l-8.4-6.8c-2.7-2.2-3.2-6.2-1-9c2.2-2.7,6.2-3.2,9-1l42.7,34.4
	c0.5,0.4,1,0.9,1.5,1.3l6,4.9c2.1,1.7,4.7,2.4,7.3,2.1c2.7-0.3,5-1.6,6.7-3.6c3.4-4.3,2.8-10.5-1.5-14l-52.9-42.7
	c-2.7-2.2-3.2-6.2-1-9c2.2-2.7,6.2-3.2,9-1l46.8,37.8l11.1,8.5c2.1,1.7,4.6,2.4,7.3,2.1c2.7-0.3,5-1.6,6.7-3.6s2.4-4.6,2.1-7.3
	c-0.3-2.7-1.6-5-3.6-6.7l-107.5-88.1c-8.7,4.8-15.5,14.4-15.5,14.4c-19.9,52-41.7,22.4-41.7,22.4c6.2-8.1,11.8-44.2,11.8-44.2
	c3.5-6.2,12.6-12.2,22.4-17.2l-18.4-0.7l0-0.1l-36.4-2.4l3.6-7.7c1.1-2.3,3.5-3.7,6-3.6l73.5,3c2-0.6,3.5-1,4.2-1.1
	c42.8-7.1,65.7,10.9,65.7,10.9l43.6,88.1l-7.2,13.5l3.8,3.1C366.4,297.5,367.9,311.8,360.1,321.5z"/>
<path fill="#65C7EE" d="M153.5,160.6l-23-10.9c-4.5-2.1-9.8-0.2-12,4.3l-39.7,83.9c-2.1,4.5-0.2,9.8,4.3,12l23,10.9
	c4.5,2.1,9.8,0.2,12-4.3l39.7-83.9C159.9,168.1,158,162.7,153.5,160.6z"/>
<path fill="#65C7EE" d="M408.5,247.5l-40.3-83.6c-2.2-4.5-7.5-6.4-12-4.2l-22.9,11c-4.5,2.2-6.4,7.5-4.2,12l40.3,83.6
	c2.2,4.5,7.5,6.4,12,4.2l22.9-11C408.8,257.3,410.7,252,408.5,247.5z"/>
</svg>
